<svg xmlns="http://www.w3.org/2000/svg" xmlns:xlink="http://www.w3.org/1999/xlink" width="500" zoomAndPan="magnify" viewBox="0 0 375 374.999991" height="500" preserveAspectRatio="xMidYMid meet" version="1.0"><defs><clipPath id="d00aae078d"><path d="M 31.347656 31.347656 L 343.347656 31.347656 L 343.347656 343.347656 L 31.347656 343.347656 Z M 31.347656 31.347656 " clip-rule="nonzero"/></clipPath><clipPath id="7f4dcc9b18"><path d="M 62.453125 86 L 133 86 L 133 157 L 62.453125 157 Z M 62.453125 86 " clip-rule="nonzero"/></clipPath><clipPath id="3a9aecd1d0"><path d="M 62.453125 218 L 133 218 L 133 289 L 62.453125 289 Z M 62.453125 218 " clip-rule="nonzero"/></clipPath><clipPath id="89894cc060"><path d="M 170 104 L 312.203125 104 L 312.203125 115 L 170 115 Z M 170 104 " clip-rule="nonzero"/></clipPath><clipPath id="87514d304c"><path d="M 170 128 L 312.203125 128 L 312.203125 139 L 170 139 Z M 170 128 " clip-rule="nonzero"/></clipPath><clipPath id="6f1b52035a"><path d="M 170 152 L 312.203125 152 L 312.203125 163 L 170 163 Z M 170 152 " clip-rule="nonzero"/></clipPath><clipPath id="331787ffac"><path d="M 170 236 L 312.203125 236 L 312.203125 247 L 170 247 Z M 170 236 " clip-rule="nonzero"/></clipPath><clipPath id="24e290ddd2"><path d="M 170 260 L 312.203125 260 L 312.203125 271 L 170 271 Z M 170 260 " clip-rule="nonzero"/></clipPath><clipPath id="bc9c0c12da"><path d="M 170.300781 284 L 312.203125 284 L 312.203125 294.398438 L 170.300781 294.398438 Z M 170.300781 284 " clip-rule="nonzero"/></clipPath><clipPath id="8b1ce6419e"><path d="M 62.453125 66.582031 L 167.453125 66.582031 L 167.453125 150.582031 L 62.453125 150.582031 Z M 62.453125 66.582031 " clip-rule="nonzero"/></clipPath><clipPath id="773110c848"><path d="M 68.59375 195 L 173.59375 195 L 173.59375 278.792969 L 68.59375 278.792969 Z M 68.59375 195 " clip-rule="nonzero"/></clipPath></defs><g clip-path="url(#d00aae078d)"><path fill="#46b3e6" d="M 310.847656 31.347656 L 63.847656 31.347656 C 45.925781 31.347656 31.347656 45.925781 31.347656 63.847656 L 31.347656 310.847656 C 31.347656 328.769531 45.925781 343.347656 63.847656 343.347656 L 310.847656 343.347656 C 328.769531 343.347656 343.347656 328.769531 343.347656 310.847656 L 343.347656 63.847656 C 343.347656 45.925781 328.769531 31.347656 310.847656 31.347656 Z M 330.347656 310.847656 C 330.347656 321.597656 321.597656 330.347656 310.847656 330.347656 L 63.847656 330.347656 C 53.097656 330.347656 44.347656 321.597656 44.347656 310.847656 L 44.347656 63.847656 C 44.347656 53.097656 53.097656 44.347656 63.847656 44.347656 L 310.847656 44.347656 C 321.597656 44.347656 330.347656 53.097656 330.347656 63.847656 Z M 330.347656 310.847656 " fill-opacity="1" fill-rule="nonzero"/></g><g clip-path="url(#7f4dcc9b18)"><path fill="#1e4dc4" d="M 122.386719 146.359375 L 72.453125 146.359375 L 72.453125 96.339844 L 122.386719 96.339844 Z M 127.394531 86.328125 L 67.441406 86.328125 C 64.691406 86.328125 62.453125 88.570312 62.453125 91.34375 L 62.453125 151.355469 C 62.453125 154.109375 64.691406 156.351562 67.441406 156.351562 L 127.394531 156.351562 C 130.144531 156.351562 132.386719 154.109375 132.386719 151.355469 L 132.386719 91.34375 C 132.386719 88.570312 130.144531 86.328125 127.394531 86.328125 " fill-opacity="1" fill-rule="nonzero"/></g><g clip-path="url(#3a9aecd1d0)"><path fill="#1e4dc4" d="M 122.386719 278.390625 L 72.453125 278.390625 L 72.453125 228.371094 L 122.386719 228.371094 Z M 127.394531 218.382812 L 67.441406 218.382812 C 64.691406 218.382812 62.453125 220.601562 62.453125 223.375 L 62.453125 283.386719 C 62.453125 286.164062 64.691406 288.382812 67.441406 288.382812 L 127.394531 288.382812 C 130.144531 288.382812 132.386719 286.164062 132.386719 283.386719 L 132.386719 223.375 C 132.386719 220.601562 130.144531 218.382812 127.394531 218.382812 " fill-opacity="1" fill-rule="nonzero"/></g><path fill="#1e4dc4" d="M 175.332031 90.347656 L 271.25 90.347656 C 274 90.347656 276.238281 88.105469 276.238281 85.328125 C 276.238281 82.574219 274 80.332031 271.25 80.332031 L 175.332031 80.332031 C 172.582031 80.332031 170.34375 82.574219 170.34375 85.328125 C 170.34375 88.105469 172.582031 90.347656 175.332031 90.347656 " fill-opacity="1" fill-rule="nonzero"/><g clip-path="url(#89894cc060)"><path fill="#1e4dc4" d="M 175.332031 114.347656 L 307.214844 114.347656 C 309.964844 114.347656 312.203125 112.105469 312.203125 109.351562 C 312.203125 106.574219 309.964844 104.332031 307.214844 104.332031 L 175.332031 104.332031 C 172.582031 104.332031 170.34375 106.574219 170.34375 109.351562 C 170.34375 112.105469 172.582031 114.347656 175.332031 114.347656 " fill-opacity="1" fill-rule="nonzero"/></g><g clip-path="url(#87514d304c)"><path fill="#1e4dc4" d="M 307.214844 128.355469 L 175.332031 128.355469 C 172.582031 128.355469 170.34375 130.574219 170.34375 133.351562 C 170.34375 136.101562 172.582031 138.34375 175.332031 138.34375 L 307.214844 138.34375 C 309.964844 138.34375 312.203125 136.101562 312.203125 133.351562 C 312.203125 130.574219 309.964844 128.355469 307.214844 128.355469 " fill-opacity="1" fill-rule="nonzero"/></g><g clip-path="url(#6f1b52035a)"><path fill="#1e4dc4" d="M 307.214844 152.355469 L 175.332031 152.355469 C 172.582031 152.355469 170.34375 154.597656 170.34375 157.351562 C 170.34375 160.125 172.582031 162.367188 175.332031 162.367188 L 307.214844 162.367188 C 309.964844 162.367188 312.203125 160.125 312.203125 157.351562 C 312.203125 154.597656 309.964844 152.355469 307.214844 152.355469 " fill-opacity="1" fill-rule="nonzero"/></g><path fill="#1e4dc4" d="M 175.332031 222.378906 L 271.25 222.378906 C 274 222.378906 276.238281 220.136719 276.238281 217.382812 C 276.238281 214.605469 274 212.363281 271.25 212.363281 L 175.332031 212.363281 C 172.582031 212.363281 170.34375 214.605469 170.34375 217.382812 C 170.34375 220.136719 172.582031 222.378906 175.332031 222.378906 " fill-opacity="1" fill-rule="nonzero"/><g clip-path="url(#331787ffac)"><path fill="#1e4dc4" d="M 307.214844 236.386719 L 175.332031 236.386719 C 172.582031 236.386719 170.34375 238.605469 170.34375 241.382812 C 170.34375 244.136719 172.582031 246.378906 175.332031 246.378906 L 307.214844 246.378906 C 309.964844 246.378906 312.203125 244.136719 312.203125 241.382812 C 312.203125 238.605469 309.964844 236.386719 307.214844 236.386719 " fill-opacity="1" fill-rule="nonzero"/></g><g clip-path="url(#24e290ddd2)"><path fill="#1e4dc4" d="M 307.214844 260.386719 L 175.332031 260.386719 C 172.582031 260.386719 170.34375 262.628906 170.34375 265.382812 C 170.34375 268.15625 172.582031 270.378906 175.332031 270.378906 L 307.214844 270.378906 C 309.964844 270.378906 312.203125 268.15625 312.203125 265.382812 C 312.203125 262.628906 309.964844 260.386719 307.214844 260.386719 " fill-opacity="1" fill-rule="nonzero"/></g><g clip-path="url(#bc9c0c12da)"><path fill="#1e4dc4" d="M 307.214844 284.386719 L 175.332031 284.386719 C 172.582031 284.386719 170.34375 286.628906 170.34375 289.402344 C 170.34375 292.15625 172.582031 294.398438 175.332031 294.398438 L 307.214844 294.398438 C 309.964844 294.398438 312.203125 292.15625 312.203125 289.402344 C 312.203125 286.628906 309.964844 284.386719 307.214844 284.386719 " fill-opacity="1" fill-rule="nonzero"/></g><g clip-path="url(#8b1ce6419e)"><path fill="#4d80e4" d="M 98.539062 150.234375 L 62.453125 114.140625 L 76.832031 99.757812 L 98.539062 121.464844 L 153.070312 66.933594 L 167.453125 81.3125 Z M 98.539062 150.234375 " fill-opacity="1" fill-rule="nonzero"/></g><g clip-path="url(#773110c848)"><path fill="#4d80e4" d="M 104.679688 278.445312 L 68.59375 242.351562 L 82.972656 227.96875 L 104.679688 249.675781 L 159.210938 195.144531 L 173.59375 209.523438 Z M 104.679688 278.445312 " fill-opacity="1" fill-rule="nonzero"/></g><path stroke-linecap="butt" transform="matrix(3.748134, 0, 0, 3.75, 31.347659, 187.499988)" fill="none" stroke-linejoin="miter" d="M -0.00000062738 0.00000328333 L 81.640631 0.00000328333 " stroke="#46b3e6" stroke-width="1" stroke-opacity="1" stroke-miterlimit="4"/></svg>