<svg xmlns="http://www.w3.org/2000/svg" xmlns:xlink="http://www.w3.org/1999/xlink" width="500" zoomAndPan="magnify" viewBox="0 0 375 374.999991" height="500" preserveAspectRatio="xMidYMid meet" version="1.0"><defs><clipPath id="8a481c8510"><path d="M 8.695312 37.5 L 310 37.5 L 310 342 L 8.695312 342 Z M 8.695312 37.5 " clip-rule="nonzero"/></clipPath><clipPath id="6001d23553"><path d="M 232 84 L 374.695312 84 L 374.695312 227 L 232 227 Z M 232 84 " clip-rule="nonzero"/></clipPath></defs><g clip-path="url(#8a481c8510)"><path fill="#46b3e6" d="M 160.675781 341.964844 C 76.746094 341.964844 8.695312 273.644531 8.695312 189.644531 C 8.695312 105.640625 76.746094 37.535156 160.675781 37.535156 C 205.972656 37.535156 248.902344 57.730469 277.882812 92.964844 C 279.816406 94.898438 279.386719 98.335938 277.453125 100.269531 C 275.308594 102.203125 272.085938 101.773438 269.941406 99.839844 C 242.894531 66.96875 202.964844 48.277344 160.675781 48.277344 C 82.324219 48.277344 19 111.65625 19 190.070312 C 19 268.058594 82.753906 331.4375 160.675781 331.4375 C 225.503906 331.4375 283.25 285.890625 298.492188 222.726562 C 298.492188 222.511719 298.277344 221.867188 298.277344 221.222656 C 298.277344 218.214844 300.636719 215.851562 303.644531 215.851562 L 304.070312 215.851562 C 305.574219 215.851562 307.078125 216.496094 308.367188 218 C 309.222656 219.289062 309.867188 221.007812 309.222656 222.511719 C 293.984375 291.90625 231.515625 341.964844 160.675781 341.964844 Z M 160.675781 341.964844 " fill-opacity="1" fill-rule="evenodd"/></g><path fill="#46b3e6" d="M 50.554688 292.121094 C 49.480469 292.121094 48.195312 291.90625 46.90625 291.046875 C 44.972656 289.113281 44.546875 285.890625 46.476562 283.527344 C 75.242188 250.871094 116.671875 231.964844 160.460938 231.964844 C 203.824219 231.964844 245.46875 250.871094 274.449219 283.527344 C 276.167969 285.675781 276.167969 288.898438 274.019531 291.046875 C 272.085938 292.765625 268.652344 292.765625 266.722656 290.617188 C 239.886719 259.679688 201.25 242.492188 160.675781 242.492188 C 119.890625 242.492188 81.253906 260.109375 54.417969 290.402344 C 53.5625 291.691406 52.058594 292.121094 50.554688 292.121094 Z M 50.554688 292.121094 " fill-opacity="1" fill-rule="evenodd"/><path fill="#46b3e6" d="M 160.675781 202.316406 C 129.550781 202.316406 103.792969 176.96875 103.792969 145.601562 C 103.792969 114.449219 129.550781 89.097656 160.675781 89.097656 C 192.019531 89.097656 217.347656 114.449219 217.347656 145.601562 C 217.347656 176.96875 192.019531 202.316406 160.675781 202.316406 Z M 160.675781 99.195312 C 135.132812 99.195312 114.308594 120.035156 114.308594 145.386719 C 114.308594 170.738281 135.132812 191.574219 160.675781 191.574219 C 186.222656 191.574219 206.828125 170.738281 206.828125 145.386719 C 206.828125 120.035156 186.222656 99.195312 160.675781 99.195312 Z M 160.675781 99.195312 " fill-opacity="1" fill-rule="evenodd"/><path fill="#46b3e6" d="M 303.644531 194.582031 C 300.636719 194.582031 298.277344 192.003906 298.277344 189.214844 L 298.277344 121.539062 C 298.277344 118.53125 300.636719 116.167969 303.644531 116.167969 C 306.648438 116.167969 309.007812 118.53125 309.007812 121.539062 L 309.007812 189.214844 C 308.582031 192.003906 306.21875 194.582031 303.644531 194.582031 Z M 303.644531 194.582031 " fill-opacity="1" fill-rule="evenodd"/><path fill="#46b3e6" d="M 337.558594 160.425781 L 269.726562 160.425781 C 266.722656 160.425781 264.359375 158.0625 264.359375 155.054688 C 264.359375 152.261719 266.722656 149.898438 269.726562 149.898438 L 337.128906 149.898438 C 340.136719 149.898438 342.496094 152.261719 342.496094 155.054688 C 342.496094 158.0625 340.136719 160.425781 337.558594 160.425781 Z M 337.558594 160.425781 " fill-opacity="1" fill-rule="evenodd"/><g clip-path="url(#6001d23553)"><path fill="#46b3e6" d="M 303.644531 226.59375 C 264.359375 226.59375 232.375 194.796875 232.375 155.484375 C 232.375 116.167969 264.359375 84.15625 303.644531 84.15625 C 342.925781 84.15625 374.695312 116.167969 374.695312 155.484375 C 374.695312 194.796875 342.925781 226.59375 303.644531 226.59375 Z M 303.644531 94.683594 C 269.941406 94.683594 242.894531 122.183594 242.894531 155.484375 C 242.894531 189.214844 270.15625 216.28125 303.644531 216.28125 C 336.914062 216.28125 364.390625 188.785156 364.390625 155.484375 C 364.390625 121.753906 336.914062 94.683594 303.644531 94.683594 Z M 303.644531 94.683594 " fill-opacity="1" fill-rule="evenodd"/></g></svg>