<svg xmlns="http://www.w3.org/2000/svg" xmlns:xlink="http://www.w3.org/1999/xlink" width="500" zoomAndPan="magnify" viewBox="0 0 375 374.999991" height="500" preserveAspectRatio="xMidYMid meet" version="1.0"><defs><clipPath id="f2e9c7df53"><path d="M 79.167969 87.941406 L 295.917969 87.941406 L 295.917969 304.691406 L 79.167969 304.691406 Z M 79.167969 87.941406 " clip-rule="nonzero"/></clipPath><clipPath id="4feae26f88"><path d="M 57.472656 27 L 317.722656 27 L 317.722656 336 L 57.472656 336 Z M 57.472656 27 " clip-rule="nonzero"/></clipPath></defs><g clip-path="url(#f2e9c7df53)"><path fill="#1e4dc4" d="M 288.179688 289.207031 L 280.4375 289.207031 L 280.4375 165.351562 C 280.4375 164.84375 280.386719 164.339844 280.289062 163.839844 C 280.191406 163.339844 280.042969 162.859375 279.847656 162.386719 C 279.652344 161.917969 279.414062 161.472656 279.132812 161.050781 C 278.851562 160.628906 278.53125 160.234375 278.171875 159.875 C 277.8125 159.515625 277.417969 159.195312 276.996094 158.914062 C 276.574219 158.632812 276.128906 158.394531 275.660156 158.199219 C 275.1875 158.003906 274.707031 157.855469 274.207031 157.757812 C 273.707031 157.660156 273.203125 157.609375 272.695312 157.609375 L 226.25 157.609375 L 226.25 95.679688 C 226.25 95.171875 226.199219 94.667969 226.101562 94.171875 C 226.003906 93.671875 225.855469 93.1875 225.660156 92.71875 C 225.464844 92.25 225.226562 91.800781 224.945312 91.378906 C 224.664062 90.957031 224.34375 90.566406 223.984375 90.207031 C 223.625 89.847656 223.230469 89.527344 222.808594 89.246094 C 222.386719 88.960938 221.941406 88.722656 221.472656 88.527344 C 221 88.335938 220.519531 88.1875 220.019531 88.089844 C 219.519531 87.988281 219.015625 87.941406 218.507812 87.941406 L 102.394531 87.941406 C 101.882812 87.941406 101.382812 87.988281 100.882812 88.089844 C 100.382812 88.1875 99.898438 88.335938 99.429688 88.527344 C 98.960938 88.722656 98.515625 88.960938 98.09375 89.246094 C 97.667969 89.527344 97.277344 89.847656 96.917969 90.207031 C 96.558594 90.566406 96.238281 90.957031 95.957031 91.378906 C 95.675781 91.800781 95.4375 92.25 95.242188 92.71875 C 95.046875 93.1875 94.898438 93.671875 94.800781 94.171875 C 94.703125 94.667969 94.652344 95.171875 94.652344 95.679688 L 94.652344 289.207031 L 86.910156 289.207031 C 86.402344 289.207031 85.898438 289.257812 85.402344 289.355469 C 84.902344 289.457031 84.417969 289.601562 83.949219 289.796875 C 83.480469 289.992188 83.03125 290.230469 82.609375 290.511719 C 82.1875 290.792969 81.796875 291.117188 81.4375 291.476562 C 81.078125 291.835938 80.757812 292.226562 80.472656 292.648438 C 80.191406 293.070312 79.953125 293.515625 79.757812 293.984375 C 79.566406 294.457031 79.417969 294.941406 79.320312 295.4375 C 79.21875 295.9375 79.167969 296.441406 79.167969 296.949219 C 79.167969 297.457031 79.21875 297.960938 79.320312 298.457031 C 79.417969 298.957031 79.566406 299.441406 79.757812 299.910156 C 79.953125 300.378906 80.191406 300.828125 80.472656 301.25 C 80.757812 301.671875 81.078125 302.0625 81.4375 302.421875 C 81.796875 302.78125 82.1875 303.101562 82.609375 303.386719 C 83.03125 303.667969 83.480469 303.90625 83.949219 304.101562 C 84.417969 304.292969 84.902344 304.441406 85.402344 304.539062 C 85.898438 304.640625 86.402344 304.691406 86.910156 304.691406 L 288.179688 304.691406 C 288.6875 304.691406 289.191406 304.640625 289.6875 304.539062 C 290.1875 304.441406 290.671875 304.292969 291.140625 304.101562 C 291.609375 303.90625 292.058594 303.667969 292.480469 303.386719 C 292.902344 303.101562 293.292969 302.78125 293.652344 302.421875 C 294.011719 302.0625 294.332031 301.671875 294.613281 301.25 C 294.898438 300.828125 295.136719 300.378906 295.332031 299.910156 C 295.523438 299.441406 295.671875 298.957031 295.769531 298.457031 C 295.871094 297.960938 295.917969 297.457031 295.917969 296.949219 C 295.917969 296.441406 295.871094 295.9375 295.769531 295.4375 C 295.671875 294.941406 295.523438 294.457031 295.332031 293.984375 C 295.136719 293.515625 294.898438 293.070312 294.613281 292.648438 C 294.332031 292.226562 294.011719 291.835938 293.652344 291.476562 C 293.292969 291.117188 292.902344 290.792969 292.480469 290.511719 C 292.058594 290.230469 291.609375 289.992188 291.140625 289.796875 C 290.671875 289.601562 290.1875 289.457031 289.6875 289.355469 C 289.191406 289.257812 288.6875 289.207031 288.179688 289.207031 Z M 264.957031 173.089844 L 264.957031 289.207031 L 226.25 289.207031 L 226.25 173.089844 Z M 110.132812 103.421875 L 210.769531 103.421875 L 210.769531 289.207031 L 195.285156 289.207031 L 195.285156 242.761719 C 195.285156 242.253906 195.234375 241.75 195.136719 241.25 C 195.039062 240.753906 194.890625 240.269531 194.695312 239.796875 C 194.503906 239.328125 194.261719 238.882812 193.980469 238.460938 C 193.699219 238.039062 193.378906 237.648438 193.019531 237.289062 C 192.660156 236.929688 192.269531 236.605469 191.84375 236.324219 C 191.421875 236.042969 190.976562 235.804688 190.507812 235.609375 C 190.039062 235.414062 189.554688 235.269531 189.054688 235.167969 C 188.554688 235.070312 188.054688 235.019531 187.542969 235.019531 L 133.355469 235.019531 C 132.847656 235.019531 132.34375 235.070312 131.847656 235.167969 C 131.347656 235.269531 130.863281 235.414062 130.394531 235.609375 C 129.925781 235.804688 129.480469 236.042969 129.054688 236.324219 C 128.632812 236.605469 128.242188 236.929688 127.882812 237.289062 C 127.523438 237.648438 127.203125 238.039062 126.921875 238.460938 C 126.636719 238.882812 126.398438 239.328125 126.207031 239.796875 C 126.011719 240.269531 125.863281 240.753906 125.765625 241.25 C 125.664062 241.75 125.617188 242.253906 125.617188 242.761719 L 125.617188 289.207031 L 110.132812 289.207031 Z M 179.804688 289.207031 L 141.097656 289.207031 L 141.097656 250.503906 L 179.804688 250.503906 Z M 179.804688 289.207031 " fill-opacity="1" fill-rule="nonzero"/></g><path fill="#1e4dc4" d="M 125.617188 111.164062 L 148.839844 111.164062 L 148.839844 126.644531 L 125.617188 126.644531 Z M 125.617188 111.164062 " fill-opacity="1" fill-rule="nonzero"/><path fill="#1e4dc4" d="M 172.0625 111.164062 L 195.285156 111.164062 L 195.285156 126.644531 L 172.0625 126.644531 Z M 172.0625 111.164062 " fill-opacity="1" fill-rule="nonzero"/><path fill="#1e4dc4" d="M 125.617188 142.128906 L 148.839844 142.128906 L 148.839844 157.609375 L 125.617188 157.609375 Z M 125.617188 142.128906 " fill-opacity="1" fill-rule="nonzero"/><path fill="#1e4dc4" d="M 172.0625 142.128906 L 195.285156 142.128906 L 195.285156 157.609375 L 172.0625 157.609375 Z M 172.0625 142.128906 " fill-opacity="1" fill-rule="nonzero"/><path fill="#1e4dc4" d="M 125.617188 173.089844 L 148.839844 173.089844 L 148.839844 188.574219 L 125.617188 188.574219 Z M 125.617188 173.089844 " fill-opacity="1" fill-rule="nonzero"/><path fill="#1e4dc4" d="M 172.0625 173.089844 L 195.285156 173.089844 L 195.285156 188.574219 L 172.0625 188.574219 Z M 172.0625 173.089844 " fill-opacity="1" fill-rule="nonzero"/><path fill="#1e4dc4" d="M 125.617188 204.054688 L 148.839844 204.054688 L 148.839844 219.539062 L 125.617188 219.539062 Z M 125.617188 204.054688 " fill-opacity="1" fill-rule="nonzero"/><path fill="#1e4dc4" d="M 172.0625 204.054688 L 195.285156 204.054688 L 195.285156 219.539062 L 172.0625 219.539062 Z M 172.0625 204.054688 " fill-opacity="1" fill-rule="nonzero"/><path fill="#1e4dc4" d="M 233.992188 188.574219 L 257.214844 188.574219 L 257.214844 204.054688 L 233.992188 204.054688 Z M 233.992188 188.574219 " fill-opacity="1" fill-rule="nonzero"/><path fill="#1e4dc4" d="M 233.992188 219.539062 L 257.214844 219.539062 L 257.214844 235.019531 L 233.992188 235.019531 Z M 233.992188 219.539062 " fill-opacity="1" fill-rule="nonzero"/><path fill="#1e4dc4" d="M 233.992188 250.503906 L 257.214844 250.503906 L 257.214844 265.984375 L 233.992188 265.984375 Z M 233.992188 250.503906 " fill-opacity="1" fill-rule="nonzero"/><g clip-path="url(#4feae26f88)"><path fill="#4d80e4" d="M 188.113281 27.171875 L 68.097656 27.171875 C 62.421875 27.171875 57.8125 31.769531 57.8125 37.441406 L 57.8125 324.972656 C 57.8125 330.640625 62.421875 335.242188 68.097656 335.242188 L 308.125 335.242188 C 313.804688 335.242188 318.410156 330.640625 318.410156 324.972656 L 318.410156 181.207031 C 318.410156 175.539062 313.804688 170.9375 308.125 170.9375 C 302.445312 170.9375 297.839844 175.539062 297.839844 181.207031 L 297.839844 314.703125 C 297.839844 314.703125 78.386719 314.703125 78.386719 314.703125 C 78.386719 314.703125 78.386719 47.707031 78.386719 47.707031 C 78.386719 47.707031 188.113281 47.707031 188.113281 47.707031 C 193.789062 47.707031 198.398438 43.109375 198.398438 37.441406 C 198.398438 31.769531 193.789062 27.171875 188.113281 27.171875 Z M 312.9375 99.867188 C 316.960938 95.851562 316.960938 89.351562 312.9375 85.335938 L 283.847656 56.292969 C 279.828125 52.277344 273.316406 52.277344 269.304688 56.292969 L 167.464844 157.945312 C 166.34375 159.078125 165.492188 160.453125 164.988281 161.960938 L 150.433594 205.535156 C 149.207031 209.21875 150.164062 213.285156 152.921875 216.039062 C 155.679688 218.792969 159.75 219.757812 163.445312 218.523438 L 207.089844 204.003906 C 208.601562 203.5 209.980469 202.648438 211.113281 201.519531 Z M 254.757812 99.867188 L 269.304688 114.386719 L 198.285156 185.285156 C 198.285156 185.285156 176.457031 192.542969 176.457031 192.542969 C 176.457031 192.542969 183.730469 170.761719 183.730469 170.761719 Z M 269.304688 85.335938 L 276.574219 78.074219 L 291.121094 92.59375 L 283.847656 99.867188 Z M 269.304688 85.335938 " fill-opacity="1" fill-rule="evenodd"/></g></svg>