<svg xmlns="http://www.w3.org/2000/svg" xmlns:xlink="http://www.w3.org/1999/xlink" width="500" zoomAndPan="magnify" viewBox="0 0 375 374.999991" height="500" preserveAspectRatio="xMidYMid meet" version="1.0"><defs><clipPath id="4ecc1e96e5"><path d="M 46.582031 46.582031 L 276 46.582031 L 276 328.582031 L 46.582031 328.582031 Z M 46.582031 46.582031 " clip-rule="nonzero"/></clipPath><clipPath id="e8539b1d70"><path d="M 161 82 L 328.582031 82 L 328.582031 250 L 161 250 Z M 161 82 " clip-rule="nonzero"/></clipPath></defs><path fill="#1e4dc4" d="M 169.765625 119.390625 L 77.378906 119.390625 C 74.957031 119.390625 72.976562 121.371094 72.976562 123.792969 C 72.976562 126.210938 74.957031 128.191406 77.378906 128.191406 L 169.765625 128.191406 C 172.183594 128.191406 174.164062 126.210938 174.164062 123.792969 C 174.164062 121.371094 172.183594 119.390625 169.765625 119.390625 Z M 169.765625 119.390625 " fill-opacity="1" fill-rule="nonzero"/><path fill="#1e4dc4" d="M 169.765625 136.988281 L 77.378906 136.988281 C 74.957031 136.988281 72.976562 138.96875 72.976562 141.386719 C 72.976562 143.808594 74.957031 145.789062 77.378906 145.789062 L 169.765625 145.789062 C 172.183594 145.789062 174.164062 143.808594 174.164062 141.386719 C 174.164062 138.96875 172.183594 136.988281 169.765625 136.988281 Z M 169.765625 136.988281 " fill-opacity="1" fill-rule="nonzero"/><path fill="#1e4dc4" d="M 169.765625 154.585938 L 77.378906 154.585938 C 74.957031 154.585938 72.976562 156.566406 72.976562 158.984375 C 72.976562 161.40625 74.957031 163.386719 77.378906 163.386719 L 169.765625 163.386719 C 172.183594 163.386719 174.164062 161.40625 174.164062 158.984375 C 174.164062 156.566406 172.183594 154.585938 169.765625 154.585938 Z M 169.765625 154.585938 " fill-opacity="1" fill-rule="nonzero"/><path fill="#1e4dc4" d="M 174.164062 284.367188 C 174.164062 281.949219 172.183594 279.96875 169.765625 279.96875 L 77.378906 279.96875 C 74.957031 279.96875 72.976562 281.949219 72.976562 284.367188 C 72.976562 286.789062 74.957031 288.769531 77.378906 288.769531 L 169.765625 288.769531 C 172.183594 288.769531 174.164062 286.789062 174.164062 284.367188 Z M 174.164062 284.367188 " fill-opacity="1" fill-rule="nonzero"/><path fill="#1e4dc4" d="M 77.378906 297.566406 C 74.957031 297.566406 72.976562 299.546875 72.976562 301.964844 C 72.976562 304.386719 74.957031 306.363281 77.378906 306.363281 L 141.167969 306.363281 C 143.589844 306.363281 145.566406 304.386719 145.566406 301.964844 C 145.566406 299.546875 143.589844 297.566406 141.167969 297.566406 Z M 77.378906 297.566406 " fill-opacity="1" fill-rule="nonzero"/><path fill="#1e4dc4" d="M 141.167969 218.378906 C 143.589844 218.378906 145.566406 216.398438 145.566406 213.976562 C 145.566406 211.558594 143.589844 209.578125 141.167969 209.578125 L 77.378906 209.578125 C 74.957031 209.578125 72.976562 211.558594 72.976562 213.976562 C 72.976562 216.398438 74.957031 218.378906 77.378906 218.378906 Z M 141.167969 218.378906 " fill-opacity="1" fill-rule="nonzero"/><path fill="#1e4dc4" d="M 72.976562 253.574219 C 72.976562 258.410156 76.9375 262.371094 81.777344 262.371094 L 99.375 262.371094 C 104.214844 262.371094 108.171875 258.410156 108.171875 253.574219 L 108.171875 235.976562 C 108.171875 231.136719 104.214844 227.175781 99.375 227.175781 L 81.777344 227.175781 C 76.9375 227.175781 72.976562 231.136719 72.976562 235.976562 Z M 81.777344 235.976562 L 99.375 235.976562 L 99.375 253.574219 L 81.777344 253.574219 Z M 81.777344 235.976562 " fill-opacity="1" fill-rule="nonzero"/><path fill="#1e4dc4" d="M 167.125 198.140625 L 173.285156 191.980469 L 77.378906 191.980469 C 74.957031 191.980469 72.976562 193.960938 72.976562 196.378906 C 72.976562 198.800781 74.957031 200.78125 77.378906 200.78125 L 164.925781 200.78125 C 165.585938 199.679688 166.246094 198.800781 167.125 198.140625 Z M 167.125 198.140625 " fill-opacity="1" fill-rule="nonzero"/><path fill="#1e4dc4" d="M 248.511719 116.53125 C 247.414062 113.011719 244.113281 110.59375 240.15625 110.59375 L 196.160156 110.59375 C 191.320312 110.59375 187.363281 114.550781 187.363281 119.390625 L 187.363281 163.386719 C 187.363281 167.34375 190 170.425781 193.300781 171.746094 L 201.660156 163.386719 L 196.160156 163.386719 L 196.160156 119.390625 L 240.15625 119.390625 L 240.15625 124.890625 Z M 248.511719 116.53125 " fill-opacity="1" fill-rule="nonzero"/><path fill="#1e4dc4" d="M 209.140625 244.113281 L 204.960938 245.433594 L 204.960938 253.574219 C 204.960938 258.410156 208.917969 262.371094 213.757812 262.371094 L 231.355469 262.371094 C 236.195312 262.371094 240.15625 258.410156 240.15625 253.574219 L 240.15625 235.976562 C 240.15625 231.136719 236.195312 227.175781 231.355469 227.175781 L 228.054688 227.175781 L 219.257812 235.976562 L 231.355469 235.976562 L 231.355469 253.574219 L 213.757812 253.574219 L 213.757812 241.472656 C 212.4375 242.574219 210.898438 243.453125 209.140625 244.113281 Z M 209.140625 244.113281 " fill-opacity="1" fill-rule="nonzero"/><path fill="#1e4dc4" d="M 154.148438 235.976562 L 156.785156 227.175781 L 147.769531 227.175781 C 142.929688 227.175781 138.96875 231.136719 138.96875 235.976562 L 138.96875 253.574219 C 138.96875 258.410156 142.929688 262.371094 147.769531 262.371094 L 165.363281 262.371094 C 169.324219 262.371094 172.84375 259.511719 173.722656 255.773438 L 169.542969 257.09375 C 168.226562 257.753906 166.683594 257.972656 165.363281 257.972656 C 161.84375 257.972656 158.765625 256.652344 156.125 254.234375 C 155.90625 254.011719 155.6875 253.792969 155.464844 253.574219 L 147.769531 253.574219 L 147.769531 235.976562 Z M 154.148438 235.976562 " fill-opacity="1" fill-rule="nonzero"/><g clip-path="url(#4ecc1e96e5)"><path fill="#1e4dc4" d="M 275.347656 89.695312 L 275.347656 64.398438 C 275.347656 54.722656 267.429688 46.800781 257.753906 46.800781 L 64.179688 46.800781 C 54.5 46.800781 46.582031 54.722656 46.582031 64.398438 L 46.582031 310.765625 C 46.582031 320.441406 54.5 328.363281 64.179688 328.363281 L 257.753906 328.363281 C 267.429688 328.363281 275.347656 320.441406 275.347656 310.765625 L 275.347656 179.882812 L 266.550781 188.683594 L 266.550781 310.765625 C 266.550781 315.605469 262.589844 319.5625 257.753906 319.5625 L 64.179688 319.5625 C 59.339844 319.5625 55.378906 315.605469 55.378906 310.765625 L 55.378906 86.394531 L 266.550781 86.394531 L 266.550781 98.496094 Z M 55.378906 77.597656 L 55.378906 64.398438 C 55.378906 59.558594 59.339844 55.601562 64.179688 55.601562 L 257.753906 55.601562 C 262.589844 55.601562 266.550781 59.558594 266.550781 64.398438 L 266.550781 77.597656 Z M 55.378906 77.597656 " fill-opacity="1" fill-rule="nonzero"/></g><g clip-path="url(#e8539b1d70)"><path fill="#1e4dc4" d="M 300.425781 83.316406 C 298.667969 81.558594 296.027344 81.558594 294.265625 83.316406 L 173.285156 204.300781 C 172.84375 204.738281 172.402344 205.398438 172.183594 206.058594 L 161.1875 243.453125 C 160.746094 244.992188 161.1875 246.753906 162.285156 247.851562 C 163.164062 248.734375 164.265625 249.171875 165.363281 249.171875 C 165.804688 249.171875 166.246094 249.171875 166.683594 248.953125 L 206.28125 235.753906 C 206.9375 235.535156 207.597656 235.09375 208.039062 234.65625 L 326.824219 115.871094 C 328.582031 114.113281 328.582031 111.472656 326.824219 109.714844 Z M 171.964844 237.953125 L 180.324219 209.800781 L 180.761719 209.359375 L 200.121094 228.714844 Z M 207.160156 223.21875 L 186.921875 202.980469 L 281.949219 107.953125 L 302.1875 128.191406 Z M 308.34375 122.03125 L 288.109375 101.792969 L 297.347656 92.554688 L 317.582031 112.792969 Z M 308.34375 122.03125 " fill-opacity="1" fill-rule="nonzero"/></g></svg>