<svg xmlns="http://www.w3.org/2000/svg" xmlns:xlink="http://www.w3.org/1999/xlink" width="500" zoomAndPan="magnify" viewBox="0 0 375 374.999991" height="500" preserveAspectRatio="xMidYMid meet" version="1.0"><defs><clipPath id="f3780f00b4"><path d="M 20.152344 20.152344 L 354.652344 20.152344 L 354.652344 354.652344 L 20.152344 354.652344 Z M 20.152344 20.152344 " clip-rule="nonzero"/></clipPath></defs><g clip-path="url(#f3780f00b4)"><path fill="#4d80e4" d="M 187.765625 20.515625 C 117.078125 20.515625 56.601562 64.554688 32.316406 126.71875 C 32.117188 127.167969 31.964844 127.628906 31.859375 128.109375 C 31.753906 128.589844 31.699219 129.074219 31.691406 129.5625 C 31.683594 130.054688 31.726562 130.539062 31.820312 131.023438 C 31.910156 131.503906 32.050781 131.972656 32.234375 132.425781 C 32.421875 132.878906 32.652344 133.308594 32.925781 133.714844 C 33.199219 134.121094 33.511719 134.496094 33.863281 134.839844 C 34.210938 135.183594 34.59375 135.488281 35.003906 135.757812 C 35.417969 136.023438 35.851562 136.246094 36.308594 136.421875 C 36.765625 136.601562 37.234375 136.734375 37.71875 136.816406 C 38.203125 136.898438 38.6875 136.933594 39.179688 136.917969 C 39.667969 136.902344 40.152344 136.835938 40.628906 136.722656 C 41.105469 136.609375 41.566406 136.449219 42.011719 136.242188 C 42.457031 136.035156 42.875 135.785156 43.269531 135.492188 C 43.664062 135.199219 44.023438 134.871094 44.351562 134.507812 C 44.679688 134.140625 44.964844 133.746094 45.214844 133.324219 C 45.460938 132.898438 45.664062 132.457031 45.820312 131.992188 C 67.984375 75.261719 123.101562 35.027344 187.765625 35.027344 C 272.003906 35.027344 340.140625 103.164062 340.140625 187.402344 C 340.140625 271.640625 272.003906 339.777344 187.765625 339.777344 C 123.101562 339.777344 67.984375 299.542969 45.820312 242.8125 C 45.664062 242.347656 45.460938 241.90625 45.214844 241.480469 C 44.964844 241.058594 44.679688 240.664062 44.351562 240.296875 C 44.023438 239.933594 43.664062 239.605469 43.269531 239.3125 C 42.875 239.019531 42.457031 238.769531 42.011719 238.5625 C 41.566406 238.355469 41.105469 238.195312 40.628906 238.082031 C 40.152344 237.96875 39.667969 237.902344 39.179688 237.886719 C 38.6875 237.871094 38.203125 237.90625 37.71875 237.988281 C 37.234375 238.070312 36.765625 238.203125 36.308594 238.382812 C 35.851562 238.558594 35.417969 238.78125 35.003906 239.046875 C 34.59375 239.316406 34.210938 239.621094 33.863281 239.964844 C 33.511719 240.308594 33.199219 240.683594 32.925781 241.089844 C 32.652344 241.496094 32.421875 241.925781 32.234375 242.378906 C 32.050781 242.832031 31.910156 243.300781 31.820312 243.78125 C 31.726562 244.265625 31.683594 244.75 31.691406 245.242188 C 31.699219 245.730469 31.753906 246.214844 31.859375 246.695312 C 31.964844 247.175781 32.117188 247.636719 32.316406 248.085938 C 56.601562 310.25 117.078125 354.289062 187.765625 354.289062 C 279.847656 354.289062 354.652344 279.484375 354.652344 187.402344 C 354.652344 95.320312 279.847656 20.515625 187.765625 20.515625 Z M 194.949219 122.027344 C 194.230469 122.027344 193.523438 122.132812 192.832031 122.34375 C 192.140625 122.554688 191.496094 122.863281 190.898438 123.265625 C 190.300781 123.667969 189.773438 124.148438 189.320312 124.710938 C 188.863281 125.269531 188.5 125.886719 188.230469 126.554688 C 187.957031 127.222656 187.789062 127.917969 187.722656 128.636719 C 187.660156 129.355469 187.703125 130.066406 187.851562 130.773438 C 187.996094 131.480469 188.246094 132.148438 188.59375 132.78125 C 188.941406 133.414062 189.375 133.980469 189.890625 134.484375 L 235.550781 180.144531 L 28.132812 180.144531 C 27.652344 180.140625 27.175781 180.179688 26.703125 180.269531 C 26.230469 180.355469 25.773438 180.488281 25.324219 180.667969 C 24.878906 180.847656 24.457031 181.070312 24.054688 181.332031 C 23.652344 181.597656 23.277344 181.898438 22.9375 182.234375 C 22.59375 182.574219 22.289062 182.941406 22.019531 183.339844 C 21.75 183.738281 21.523438 184.15625 21.335938 184.601562 C 21.152344 185.046875 21.011719 185.503906 20.917969 185.972656 C 20.820312 186.445312 20.773438 186.921875 20.773438 187.402344 C 20.773438 187.882812 20.820312 188.359375 20.917969 188.832031 C 21.011719 189.300781 21.152344 189.757812 21.335938 190.203125 C 21.523438 190.648438 21.75 191.066406 22.019531 191.464844 C 22.289062 191.863281 22.59375 192.230469 22.9375 192.570312 C 23.277344 192.90625 23.652344 193.207031 24.054688 193.472656 C 24.457031 193.734375 24.878906 193.957031 25.324219 194.136719 C 25.773438 194.316406 26.230469 194.449219 26.703125 194.535156 C 27.175781 194.625 27.652344 194.664062 28.132812 194.660156 L 235.550781 194.660156 L 189.890625 240.320312 C 189.542969 240.652344 189.230469 241.019531 188.957031 241.417969 C 188.679688 241.8125 188.445312 242.230469 188.253906 242.675781 C 188.0625 243.117188 187.917969 243.574219 187.816406 244.046875 C 187.71875 244.519531 187.664062 244.996094 187.660156 245.480469 C 187.65625 245.964844 187.699219 246.441406 187.789062 246.914062 C 187.878906 247.390625 188.015625 247.851562 188.199219 248.296875 C 188.382812 248.742188 188.605469 249.167969 188.871094 249.570312 C 189.140625 249.972656 189.445312 250.34375 189.785156 250.6875 C 190.125 251.027344 190.5 251.332031 190.902344 251.597656 C 191.300781 251.867188 191.726562 252.089844 192.175781 252.273438 C 192.621094 252.457031 193.082031 252.589844 193.554688 252.683594 C 194.03125 252.773438 194.507812 252.816406 194.992188 252.8125 C 195.472656 252.804688 195.949219 252.753906 196.421875 252.652344 C 196.894531 252.554688 197.351562 252.40625 197.796875 252.214844 C 198.238281 252.023438 198.660156 251.789062 199.054688 251.515625 C 199.453125 251.238281 199.816406 250.929688 200.152344 250.582031 L 258.199219 192.53125 C 258.535156 192.195312 258.835938 191.828125 259.101562 191.433594 C 259.367188 191.035156 259.589844 190.617188 259.769531 190.179688 C 259.953125 189.738281 260.089844 189.285156 260.183594 188.816406 C 260.277344 188.351562 260.324219 187.878906 260.324219 187.402344 C 260.324219 186.925781 260.277344 186.453125 260.183594 185.988281 C 260.089844 185.519531 259.953125 185.066406 259.769531 184.625 C 259.589844 184.1875 259.367188 183.769531 259.101562 183.371094 C 258.835938 182.976562 258.535156 182.609375 258.199219 182.273438 L 200.152344 124.222656 C 199.46875 123.523438 198.675781 122.980469 197.773438 122.597656 C 196.871094 122.21875 195.929688 122.027344 194.949219 122.027344 Z M 194.949219 122.027344 " fill-opacity="1" fill-rule="nonzero"/></g></svg>