<svg xmlns="http://www.w3.org/2000/svg" xmlns:xlink="http://www.w3.org/1999/xlink" width="500" zoomAndPan="magnify" viewBox="0 0 375 374.999991" height="500" preserveAspectRatio="xMidYMid meet" version="1.0"><defs><clipPath id="4963067b62"><path d="M 58.304688 19.167969 L 317 19.167969 L 317 355.917969 L 58.304688 355.917969 Z M 58.304688 19.167969 " clip-rule="nonzero"/></clipPath></defs><g clip-path="url(#4963067b62)"><path fill="#46b3e6" d="M 311.296875 355.917969 L 64.066406 355.917969 C 60.964844 355.917969 58.449219 353.410156 58.449219 350.308594 L 58.449219 24.78125 C 58.449219 21.679688 60.964844 19.167969 64.066406 19.167969 L 311.296875 19.167969 C 314.398438 19.167969 316.914062 21.679688 316.914062 24.78125 L 316.914062 350.308594 C 316.914062 353.410156 314.398438 355.917969 311.296875 355.917969 Z M 69.6875 344.695312 L 305.675781 344.695312 L 305.675781 30.394531 L 69.6875 30.394531 Z M 69.6875 344.695312 " fill-opacity="1" fill-rule="nonzero"/></g><path fill="#46b3e6" d="M 125.875 103.355469 C 110.382812 103.355469 97.78125 90.769531 97.78125 75.292969 C 97.78125 59.820312 110.382812 47.230469 125.875 47.230469 C 141.363281 47.230469 153.96875 59.820312 153.96875 75.292969 C 153.96875 90.769531 141.363281 103.355469 125.875 103.355469 Z M 125.875 58.457031 C 116.582031 58.457031 109.015625 66.011719 109.015625 75.292969 C 109.015625 84.578125 116.582031 92.132812 125.875 92.132812 C 135.167969 92.132812 142.730469 84.578125 142.730469 75.292969 C 142.730469 66.011719 135.167969 58.457031 125.875 58.457031 Z M 125.875 58.457031 " fill-opacity="1" fill-rule="nonzero"/><path fill="#46b3e6" d="M 165.207031 153.871094 L 153.96875 153.871094 C 153.96875 138.394531 141.363281 125.808594 125.875 125.808594 C 110.382812 125.808594 97.78125 138.394531 97.78125 153.871094 L 86.542969 153.871094 C 86.542969 132.210938 104.183594 114.582031 125.875 114.582031 C 147.5625 114.582031 165.207031 132.210938 165.207031 153.871094 Z M 165.207031 153.871094 " fill-opacity="1" fill-rule="nonzero"/><path fill="#46b3e6" d="M 283.199219 108.96875 L 182.0625 108.96875 C 178.960938 108.96875 176.441406 106.460938 176.441406 103.355469 L 176.441406 58.457031 C 176.441406 55.351562 178.960938 52.84375 182.0625 52.84375 L 283.199219 52.84375 C 286.300781 52.84375 288.820312 55.351562 288.820312 58.457031 L 288.820312 103.355469 C 288.820312 106.460938 286.300781 108.96875 283.199219 108.96875 Z M 187.679688 97.746094 L 277.582031 97.746094 L 277.582031 64.070312 L 187.679688 64.070312 Z M 187.679688 97.746094 " fill-opacity="1" fill-rule="nonzero"/><path fill="#46b3e6" d="M 193.300781 327.855469 L 92.160156 327.855469 C 89.058594 327.855469 86.542969 325.347656 86.542969 322.246094 L 86.542969 288.570312 C 86.542969 285.464844 89.058594 282.957031 92.160156 282.957031 L 193.300781 282.957031 C 196.402344 282.957031 198.917969 285.464844 198.917969 288.570312 L 198.917969 322.246094 C 198.917969 325.347656 196.402344 327.855469 193.300781 327.855469 Z M 97.78125 316.632812 L 187.679688 316.632812 L 187.679688 294.183594 L 97.78125 294.183594 Z M 97.78125 316.632812 " fill-opacity="1" fill-rule="nonzero"/><path fill="#46b3e6" d="M 176.441406 120.195312 L 288.820312 120.195312 L 288.820312 131.417969 L 176.441406 131.417969 Z M 176.441406 120.195312 " fill-opacity="1" fill-rule="nonzero"/><path fill="#46b3e6" d="M 176.441406 142.644531 L 288.820312 142.644531 L 288.820312 153.871094 L 176.441406 153.871094 Z M 176.441406 142.644531 " fill-opacity="1" fill-rule="nonzero"/><path fill="#46b3e6" d="M 210.15625 288.570312 L 288.820312 288.570312 L 288.820312 299.792969 L 210.15625 299.792969 Z M 210.15625 288.570312 " fill-opacity="1" fill-rule="nonzero"/><path fill="#46b3e6" d="M 210.15625 311.019531 L 288.820312 311.019531 L 288.820312 322.246094 L 210.15625 322.246094 Z M 210.15625 311.019531 " fill-opacity="1" fill-rule="nonzero"/><path fill="#46b3e6" d="M 86.542969 170.707031 L 288.820312 170.707031 L 288.820312 181.933594 L 86.542969 181.933594 Z M 86.542969 170.707031 " fill-opacity="1" fill-rule="nonzero"/><path fill="#46b3e6" d="M 86.542969 193.15625 L 288.820312 193.15625 L 288.820312 204.382812 L 86.542969 204.382812 Z M 86.542969 193.15625 " fill-opacity="1" fill-rule="nonzero"/><path fill="#46b3e6" d="M 86.542969 215.605469 L 288.820312 215.605469 L 288.820312 226.832031 L 86.542969 226.832031 Z M 86.542969 215.605469 " fill-opacity="1" fill-rule="nonzero"/><path fill="#46b3e6" d="M 86.542969 238.058594 L 288.820312 238.058594 L 288.820312 249.28125 L 86.542969 249.28125 Z M 86.542969 238.058594 " fill-opacity="1" fill-rule="nonzero"/><path fill="#46b3e6" d="M 86.542969 260.507812 L 288.820312 260.507812 L 288.820312 271.730469 L 86.542969 271.730469 Z M 86.542969 260.507812 " fill-opacity="1" fill-rule="nonzero"/></svg>