<svg xmlns="http://www.w3.org/2000/svg" xmlns:xlink="http://www.w3.org/1999/xlink" width="500" zoomAndPan="magnify" viewBox="0 0 375 374.999991" height="500" preserveAspectRatio="xMidYMid meet" version="1.0"><defs><clipPath id="9fff364353"><path d="M 41.082031 41.082031 L 333.582031 41.082031 L 333.582031 333.582031 L 41.082031 333.582031 Z M 41.082031 41.082031 " clip-rule="nonzero"/></clipPath></defs><g clip-path="url(#9fff364353)"><path fill="#1e4dc4" d="M 323.136719 312.691406 L 312.691406 312.691406 L 312.691406 145.546875 C 312.691406 144.863281 312.625 144.183594 312.488281 143.511719 C 312.355469 142.835938 312.15625 142.183594 311.894531 141.550781 C 311.632812 140.917969 311.3125 140.316406 310.929688 139.746094 C 310.550781 139.175781 310.117188 138.644531 309.632812 138.160156 C 309.144531 137.675781 308.617188 137.242188 308.046875 136.863281 C 307.476562 136.480469 306.875 136.160156 306.242188 135.898438 C 305.609375 135.632812 304.957031 135.4375 304.28125 135.300781 C 303.609375 135.167969 302.929688 135.101562 302.246094 135.101562 L 239.566406 135.101562 L 239.566406 51.53125 C 239.566406 50.84375 239.5 50.164062 239.363281 49.492188 C 239.230469 48.820312 239.03125 48.167969 238.769531 47.53125 C 238.507812 46.898438 238.1875 46.296875 237.804688 45.726562 C 237.425781 45.15625 236.992188 44.628906 236.507812 44.144531 C 236.019531 43.660156 235.492188 43.226562 234.921875 42.84375 C 234.351562 42.464844 233.75 42.140625 233.117188 41.878906 C 232.484375 41.617188 231.832031 41.417969 231.15625 41.285156 C 230.484375 41.152344 229.804688 41.082031 229.121094 41.082031 L 72.421875 41.082031 C 71.738281 41.082031 71.058594 41.152344 70.386719 41.285156 C 69.710938 41.417969 69.058594 41.617188 68.425781 41.878906 C 67.792969 42.140625 67.191406 42.464844 66.621094 42.84375 C 66.050781 43.226562 65.519531 43.660156 65.035156 44.144531 C 64.550781 44.628906 64.117188 45.15625 63.738281 45.726562 C 63.355469 46.296875 63.035156 46.898438 62.773438 47.53125 C 62.507812 48.167969 62.3125 48.820312 62.175781 49.492188 C 62.042969 50.164062 61.976562 50.84375 61.976562 51.53125 L 61.976562 312.691406 L 51.53125 312.691406 C 50.84375 312.691406 50.164062 312.757812 49.492188 312.890625 C 48.820312 313.023438 48.167969 313.222656 47.53125 313.484375 C 46.898438 313.75 46.296875 314.070312 45.726562 314.453125 C 45.15625 314.832031 44.628906 315.265625 44.144531 315.75 C 43.660156 316.234375 43.226562 316.761719 42.84375 317.332031 C 42.464844 317.902344 42.140625 318.503906 41.878906 319.140625 C 41.617188 319.773438 41.417969 320.425781 41.285156 321.097656 C 41.152344 321.773438 41.082031 322.453125 41.082031 323.136719 C 41.082031 323.824219 41.152344 324.503906 41.285156 325.175781 C 41.417969 325.847656 41.617188 326.5 41.878906 327.136719 C 42.140625 327.769531 42.464844 328.371094 42.84375 328.941406 C 43.226562 329.511719 43.660156 330.039062 44.144531 330.523438 C 44.628906 331.007812 45.15625 331.441406 45.726562 331.824219 C 46.296875 332.203125 46.898438 332.527344 47.53125 332.789062 C 48.167969 333.050781 48.820312 333.25 49.492188 333.382812 C 50.164062 333.515625 50.84375 333.582031 51.53125 333.582031 L 323.136719 333.582031 C 323.824219 333.582031 324.503906 333.515625 325.175781 333.382812 C 325.847656 333.25 326.5 333.050781 327.136719 332.789062 C 327.769531 332.527344 328.371094 332.203125 328.941406 331.824219 C 329.511719 331.441406 330.039062 331.007812 330.523438 330.523438 C 331.007812 330.039062 331.441406 329.511719 331.824219 328.941406 C 332.203125 328.371094 332.527344 327.769531 332.789062 327.136719 C 333.050781 326.5 333.25 325.847656 333.382812 325.175781 C 333.515625 324.503906 333.582031 323.824219 333.582031 323.136719 C 333.582031 322.453125 333.515625 321.773438 333.382812 321.097656 C 333.25 320.425781 333.050781 319.773438 332.789062 319.140625 C 332.527344 318.503906 332.203125 317.902344 331.824219 317.332031 C 331.441406 316.761719 331.007812 316.234375 330.523438 315.75 C 330.039062 315.265625 329.511719 314.832031 328.941406 314.453125 C 328.371094 314.070312 327.769531 313.75 327.136719 313.484375 C 326.5 313.222656 325.847656 313.023438 325.175781 312.890625 C 324.503906 312.757812 323.824219 312.691406 323.136719 312.691406 Z M 291.796875 155.996094 L 291.796875 312.691406 L 239.566406 312.691406 L 239.566406 155.996094 Z M 82.871094 61.976562 L 218.671875 61.976562 L 218.671875 312.691406 L 197.78125 312.691406 L 197.78125 250.011719 C 197.78125 249.328125 197.714844 248.648438 197.578125 247.972656 C 197.445312 247.300781 197.246094 246.648438 196.984375 246.015625 C 196.722656 245.378906 196.402344 244.777344 196.019531 244.207031 C 195.636719 243.636719 195.207031 243.109375 194.71875 242.625 C 194.234375 242.140625 193.707031 241.707031 193.136719 241.328125 C 192.566406 240.945312 191.964844 240.625 191.332031 240.359375 C 190.699219 240.097656 190.042969 239.898438 189.371094 239.765625 C 188.699219 239.632812 188.019531 239.566406 187.332031 239.566406 L 114.207031 239.566406 C 113.523438 239.566406 112.84375 239.632812 112.171875 239.765625 C 111.5 239.898438 110.84375 240.097656 110.210938 240.359375 C 109.578125 240.625 108.976562 240.945312 108.40625 241.328125 C 107.835938 241.707031 107.308594 242.140625 106.820312 242.625 C 106.335938 243.109375 105.902344 243.636719 105.523438 244.207031 C 105.140625 244.777344 104.820312 245.382812 104.558594 246.015625 C 104.296875 246.648438 104.097656 247.300781 103.964844 247.972656 C 103.828125 248.648438 103.761719 249.328125 103.761719 250.011719 L 103.761719 312.691406 L 82.871094 312.691406 Z M 176.886719 312.691406 L 124.65625 312.691406 L 124.65625 260.457031 L 176.886719 260.457031 Z M 176.886719 312.691406 " fill-opacity="1" fill-rule="nonzero"/></g><path fill="#1e4dc4" d="M 103.761719 72.421875 L 135.101562 72.421875 L 135.101562 93.316406 L 103.761719 93.316406 Z M 103.761719 72.421875 " fill-opacity="1" fill-rule="nonzero"/><path fill="#1e4dc4" d="M 166.441406 72.421875 L 197.78125 72.421875 L 197.78125 93.316406 L 166.441406 93.316406 Z M 166.441406 72.421875 " fill-opacity="1" fill-rule="nonzero"/><path fill="#1e4dc4" d="M 103.761719 114.207031 L 135.101562 114.207031 L 135.101562 135.101562 L 103.761719 135.101562 Z M 103.761719 114.207031 " fill-opacity="1" fill-rule="nonzero"/><path fill="#1e4dc4" d="M 166.441406 114.207031 L 197.78125 114.207031 L 197.78125 135.101562 L 166.441406 135.101562 Z M 166.441406 114.207031 " fill-opacity="1" fill-rule="nonzero"/><path fill="#1e4dc4" d="M 103.761719 155.996094 L 135.101562 155.996094 L 135.101562 176.886719 L 103.761719 176.886719 Z M 103.761719 155.996094 " fill-opacity="1" fill-rule="nonzero"/><path fill="#1e4dc4" d="M 166.441406 155.996094 L 197.78125 155.996094 L 197.78125 176.886719 L 166.441406 176.886719 Z M 166.441406 155.996094 " fill-opacity="1" fill-rule="nonzero"/><path fill="#1e4dc4" d="M 103.761719 197.78125 L 135.101562 197.78125 L 135.101562 218.671875 L 103.761719 218.671875 Z M 103.761719 197.78125 " fill-opacity="1" fill-rule="nonzero"/><path fill="#1e4dc4" d="M 166.441406 197.78125 L 197.78125 197.78125 L 197.78125 218.671875 L 166.441406 218.671875 Z M 166.441406 197.78125 " fill-opacity="1" fill-rule="nonzero"/><path fill="#1e4dc4" d="M 250.011719 176.886719 L 281.351562 176.886719 L 281.351562 197.78125 L 250.011719 197.78125 Z M 250.011719 176.886719 " fill-opacity="1" fill-rule="nonzero"/><path fill="#1e4dc4" d="M 250.011719 218.671875 L 281.351562 218.671875 L 281.351562 239.566406 L 250.011719 239.566406 Z M 250.011719 218.671875 " fill-opacity="1" fill-rule="nonzero"/><path fill="#1e4dc4" d="M 250.011719 260.457031 L 281.351562 260.457031 L 281.351562 281.351562 L 250.011719 281.351562 Z M 250.011719 260.457031 " fill-opacity="1" fill-rule="nonzero"/></svg>