<svg xmlns="http://www.w3.org/2000/svg" xmlns:xlink="http://www.w3.org/1999/xlink" width="500" zoomAndPan="magnify" viewBox="0 0 375 374.999991" height="500" preserveAspectRatio="xMidYMid meet" version="1.0"><defs><clipPath id="9cc95b96ac"><path d="M 50.71875 50.71875 L 324.46875 50.71875 L 324.46875 324.46875 L 50.71875 324.46875 Z M 50.71875 50.71875 " clip-rule="nonzero"/></clipPath></defs><g clip-path="url(#9cc95b96ac)"><path fill="#1e4dc4" d="M 320.03125 324.449219 C 317.652344 324.449219 315.691406 322.488281 315.691406 320.105469 L 315.691406 295.363281 C 315.691406 258.988281 286.097656 229.394531 249.722656 229.394531 L 125.488281 229.394531 C 89.113281 229.394531 59.515625 258.988281 59.515625 295.363281 L 59.515625 320.105469 C 59.515625 322.503906 57.574219 324.449219 55.175781 324.449219 C 52.777344 324.449219 50.835938 322.503906 50.835938 320.105469 L 50.835938 295.363281 C 50.835938 254.199219 84.324219 220.710938 125.488281 220.710938 L 249.722656 220.710938 C 290.886719 220.710938 324.375 254.199219 324.375 295.363281 L 324.375 320.105469 C 324.375 322.488281 322.414062 324.449219 320.03125 324.449219 Z M 266.765625 129.878906 C 266.765625 86.230469 231.253906 50.71875 187.605469 50.71875 C 143.957031 50.71875 108.445312 86.230469 108.445312 129.878906 C 108.445312 173.527344 143.957031 209.039062 187.605469 209.039062 C 231.253906 209.039062 266.765625 173.527344 266.765625 129.878906 Z M 258.082031 129.878906 C 258.082031 168.738281 226.464844 200.355469 187.605469 200.355469 C 148.742188 200.355469 117.128906 168.738281 117.128906 129.878906 C 117.128906 91.015625 148.742188 59.402344 187.605469 59.402344 C 226.464844 59.402344 258.082031 91.015625 258.082031 129.878906 Z M 258.082031 129.878906 " fill-opacity="1" fill-rule="nonzero"/></g></svg>