<svg xmlns="http://www.w3.org/2000/svg" xmlns:xlink="http://www.w3.org/1999/xlink" width="500" zoomAndPan="magnify" viewBox="0 0 375 374.999991" height="500" preserveAspectRatio="xMidYMid meet" version="1.0"><defs><clipPath id="cda7438729"><path d="M 51.195312 51.195312 L 323.445312 51.195312 L 323.445312 323.445312 L 51.195312 323.445312 Z M 51.195312 51.195312 " clip-rule="nonzero"/></clipPath></defs><g clip-path="url(#cda7438729)"><path fill="#46b3e6" d="M 323.40625 187.292969 C 323.40625 189.523438 323.351562 191.746094 323.242188 193.972656 C 323.132812 196.199219 322.96875 198.417969 322.753906 200.636719 C 322.535156 202.851562 322.261719 205.0625 321.933594 207.265625 C 321.609375 209.46875 321.226562 211.664062 320.792969 213.847656 C 320.359375 216.035156 319.871094 218.207031 319.328125 220.367188 C 318.789062 222.527344 318.191406 224.675781 317.546875 226.804688 C 316.898438 228.9375 316.203125 231.050781 315.449219 233.148438 C 314.699219 235.246094 313.898438 237.324219 313.046875 239.382812 C 312.195312 241.441406 311.292969 243.476562 310.339844 245.488281 C 309.386719 247.503906 308.386719 249.492188 307.335938 251.457031 C 306.285156 253.421875 305.1875 255.359375 304.042969 257.269531 C 302.898438 259.179688 301.707031 261.0625 300.46875 262.914062 C 299.230469 264.765625 297.949219 266.585938 296.621094 268.375 C 295.292969 270.167969 293.925781 271.921875 292.511719 273.644531 C 291.097656 275.367188 289.644531 277.050781 288.148438 278.703125 C 286.652344 280.351562 285.117188 281.964844 283.539062 283.542969 C 281.964844 285.117188 280.351562 286.652344 278.703125 288.148438 C 277.050781 289.644531 275.367188 291.097656 273.644531 292.511719 C 271.921875 293.925781 270.164062 295.292969 268.375 296.621094 C 266.585938 297.949219 264.765625 299.230469 262.914062 300.46875 C 261.0625 301.707031 259.179688 302.898438 257.269531 304.042969 C 255.359375 305.1875 253.421875 306.285156 251.457031 307.335938 C 249.492188 308.386719 247.503906 309.386719 245.488281 310.339844 C 243.476562 311.292969 241.441406 312.195312 239.382812 313.046875 C 237.324219 313.898438 235.246094 314.699219 233.148438 315.453125 C 231.050781 316.203125 228.9375 316.898438 226.804688 317.546875 C 224.671875 318.195312 222.527344 318.789062 220.367188 319.328125 C 218.207031 319.871094 216.03125 320.359375 213.847656 320.792969 C 211.664062 321.226562 209.46875 321.609375 207.265625 321.933594 C 205.0625 322.261719 202.851562 322.535156 200.636719 322.753906 C 198.417969 322.972656 196.199219 323.132812 193.972656 323.242188 C 191.746094 323.351562 189.519531 323.40625 187.292969 323.40625 C 185.066406 323.40625 182.839844 323.351562 180.613281 323.242188 C 178.390625 323.132812 176.167969 322.972656 173.953125 322.753906 C 171.734375 322.535156 169.523438 322.261719 167.320312 321.933594 C 165.117188 321.609375 162.925781 321.226562 160.738281 320.792969 C 158.554688 320.359375 156.382812 319.871094 154.21875 319.328125 C 152.058594 318.789062 149.914062 318.195312 147.78125 317.546875 C 145.648438 316.898438 143.535156 316.203125 141.4375 315.453125 C 139.339844 314.699219 137.261719 313.898438 135.203125 313.046875 C 133.148438 312.195312 131.109375 311.292969 129.097656 310.339844 C 127.082031 309.386719 125.09375 308.386719 123.128906 307.335938 C 121.164062 306.285156 119.226562 305.1875 117.316406 304.042969 C 115.40625 302.898438 113.523438 301.707031 111.671875 300.46875 C 109.820312 299.230469 108 297.949219 106.210938 296.621094 C 104.421875 295.292969 102.664062 293.925781 100.945312 292.511719 C 99.222656 291.097656 97.535156 289.644531 95.886719 288.148438 C 94.234375 286.652344 92.621094 285.117188 91.046875 283.542969 C 89.472656 281.964844 87.9375 280.351562 86.441406 278.703125 C 84.945312 277.050781 83.488281 275.367188 82.074219 273.644531 C 80.664062 271.921875 79.292969 270.167969 77.964844 268.375 C 76.640625 266.585938 75.355469 264.765625 74.117188 262.914062 C 72.882812 261.0625 71.691406 259.179688 70.542969 257.269531 C 69.398438 255.359375 68.300781 253.421875 67.25 251.457031 C 66.203125 249.492188 65.199219 247.503906 64.25 245.488281 C 63.296875 243.476562 62.394531 241.441406 61.539062 239.382812 C 60.6875 237.324219 59.886719 235.246094 59.136719 233.148438 C 58.386719 231.050781 57.6875 228.9375 57.039062 226.804688 C 56.394531 224.675781 55.800781 222.527344 55.257812 220.367188 C 54.71875 218.207031 54.230469 216.035156 53.796875 213.847656 C 53.359375 211.664062 52.980469 209.46875 52.652344 207.265625 C 52.324219 205.0625 52.054688 202.851562 51.835938 200.636719 C 51.617188 198.417969 51.453125 196.199219 51.34375 193.972656 C 51.234375 191.746094 51.179688 189.523438 51.179688 187.292969 C 51.179688 185.066406 51.234375 182.839844 51.34375 180.613281 C 51.453125 178.390625 51.617188 176.167969 51.835938 173.953125 C 52.054688 171.734375 52.324219 169.527344 52.652344 167.320312 C 52.980469 165.117188 53.359375 162.925781 53.796875 160.738281 C 54.230469 158.554688 54.71875 156.382812 55.257812 154.222656 C 55.800781 152.058594 56.394531 149.914062 57.039062 147.78125 C 57.6875 145.652344 58.386719 143.535156 59.136719 141.4375 C 59.886719 139.339844 60.6875 137.261719 61.539062 135.207031 C 62.394531 133.148438 63.296875 131.113281 64.25 129.097656 C 65.199219 127.085938 66.203125 125.09375 67.25 123.128906 C 68.300781 121.164062 69.398438 119.226562 70.542969 117.316406 C 71.691406 115.40625 72.882812 113.523438 74.117188 111.671875 C 75.355469 109.820312 76.640625 108 77.964844 106.210938 C 79.292969 104.421875 80.664062 102.667969 82.074219 100.945312 C 83.488281 99.222656 84.945312 97.535156 86.441406 95.886719 C 87.9375 94.234375 89.472656 92.621094 91.046875 91.046875 C 92.621094 89.472656 94.234375 87.9375 95.886719 86.441406 C 97.535156 84.945312 99.222656 83.488281 100.945312 82.078125 C 102.664062 80.664062 104.421875 79.292969 106.210938 77.964844 C 108 76.640625 109.820312 75.355469 111.671875 74.121094 C 113.523438 72.882812 115.40625 71.691406 117.316406 70.546875 C 119.226562 69.398438 121.164062 68.300781 123.128906 67.253906 C 125.09375 66.203125 127.082031 65.199219 129.097656 64.25 C 131.109375 63.296875 133.148438 62.394531 135.203125 61.542969 C 137.261719 60.6875 139.339844 59.886719 141.4375 59.136719 C 143.535156 58.386719 145.648438 57.6875 147.78125 57.042969 C 149.914062 56.394531 152.058594 55.800781 154.21875 55.257812 C 156.382812 54.71875 158.554688 54.230469 160.738281 53.796875 C 162.925781 53.359375 165.117188 52.980469 167.320312 52.652344 C 169.523438 52.328125 171.734375 52.054688 173.953125 51.835938 C 176.167969 51.617188 178.390625 51.453125 180.613281 51.34375 C 182.839844 51.234375 185.066406 51.179688 187.292969 51.179688 C 189.519531 51.179688 191.746094 51.234375 193.972656 51.34375 C 196.199219 51.453125 198.417969 51.617188 200.636719 51.835938 C 202.851562 52.054688 205.0625 52.328125 207.265625 52.652344 C 209.46875 52.980469 211.664062 53.359375 213.847656 53.796875 C 216.03125 54.230469 218.207031 54.71875 220.367188 55.257812 C 222.527344 55.800781 224.671875 56.394531 226.804688 57.042969 C 228.9375 57.6875 231.050781 58.386719 233.148438 59.136719 C 235.246094 59.886719 237.324219 60.6875 239.382812 61.542969 C 241.441406 62.394531 243.476562 63.296875 245.488281 64.25 C 247.503906 65.199219 249.492188 66.203125 251.457031 67.253906 C 253.421875 68.300781 255.359375 69.398438 257.269531 70.546875 C 259.179688 71.691406 261.0625 72.882812 262.914062 74.121094 C 264.765625 75.355469 266.585938 76.640625 268.375 77.964844 C 270.164062 79.292969 271.921875 80.664062 273.644531 82.078125 C 275.367188 83.488281 277.050781 84.945312 278.703125 86.441406 C 280.351562 87.9375 281.964844 89.472656 283.539062 91.046875 C 285.117188 92.621094 286.652344 94.234375 288.148438 95.886719 C 289.644531 97.535156 291.097656 99.222656 292.511719 100.945312 C 293.925781 102.667969 295.292969 104.421875 296.621094 106.210938 C 297.949219 108 299.230469 109.820312 300.46875 111.671875 C 301.707031 113.523438 302.898438 115.40625 304.042969 117.316406 C 305.1875 119.226562 306.285156 121.164062 307.335938 123.128906 C 308.386719 125.09375 309.386719 127.085938 310.339844 129.097656 C 311.292969 131.113281 312.195312 133.148438 313.046875 135.207031 C 313.898438 137.261719 314.699219 139.339844 315.449219 141.4375 C 316.203125 143.535156 316.898438 145.652344 317.546875 147.78125 C 318.191406 149.914062 318.789062 152.058594 319.328125 154.222656 C 319.871094 156.382812 320.359375 158.554688 320.792969 160.738281 C 321.226562 162.925781 321.609375 165.117188 321.933594 167.320312 C 322.261719 169.527344 322.535156 171.734375 322.753906 173.953125 C 322.96875 176.167969 323.132812 178.390625 323.242188 180.613281 C 323.351562 182.839844 323.40625 185.066406 323.40625 187.292969 Z M 323.40625 187.292969 " fill-opacity="1" fill-rule="nonzero"/></g><path fill="#dff6f0" d="M 134.625 253.0625 L 134.625 121.523438 L 239.964844 121.523438 L 239.964844 253.0625 L 190.882812 209.71875 Z M 134.625 253.0625 " fill-opacity="1" fill-rule="nonzero"/></svg>