<svg xmlns="http://www.w3.org/2000/svg" xmlns:xlink="http://www.w3.org/1999/xlink" width="500" zoomAndPan="magnify" viewBox="0 0 375 374.999991" height="500" preserveAspectRatio="xMidYMid meet" version="1.0"><defs><clipPath id="d2d4b2d062"><path d="M 16 53.007812 L 359 53.007812 L 359 254.007812 L 16 254.007812 Z M 16 53.007812 " clip-rule="nonzero"/></clipPath></defs><g clip-path="url(#d2d4b2d062)"><path fill="#1e4dc4" d="M 318.242188 132.191406 C 327.355469 123.925781 333 111.742188 333 97.820312 C 333 73.023438 314.769531 53.007812 292.199219 53.007812 C 269.628906 53.007812 251.398438 73.023438 251.398438 97.820312 C 251.398438 111.742188 257.039062 123.925781 266.15625 132.191406 C 244.453125 139.152344 229.695312 153.507812 227.527344 170.476562 C 223.183594 168.300781 218.84375 166.125 214.070312 164.820312 C 223.183594 156.554688 228.828125 144.371094 228.828125 130.449219 C 228.828125 105.652344 210.597656 85.640625 188.027344 85.640625 C 165.457031 85.640625 147.226562 105.652344 147.226562 130.449219 C 147.226562 144.371094 152.871094 156.554688 161.984375 164.820312 C 155.90625 166.5625 150.699219 169.171875 145.925781 172.21875 C 145.058594 162.644531 140.28125 153.074219 131.601562 145.679688 C 125.089844 140.023438 116.84375 135.238281 107.296875 132.625 C 116.410156 124.359375 122.050781 112.179688 122.050781 98.253906 C 122.050781 73.457031 103.824219 53.445312 81.253906 53.445312 C 58.683594 53.445312 40.453125 73.457031 40.453125 98.253906 C 40.453125 112.179688 46.09375 124.359375 55.210938 132.625 C 31.769531 140.023438 16.144531 156.554688 16.144531 175.261719 C 16.144531 187.878906 23.089844 199.625 35.675781 208.328125 C 47.832031 217.027344 63.890625 221.378906 81.253906 221.378906 C 97.746094 221.378906 112.9375 216.160156 123.789062 210.066406 C 124.65625 221.8125 131.601562 232.691406 143.320312 240.957031 C 155.472656 249.660156 171.535156 254.007812 188.894531 254.007812 C 206.257812 254.007812 222.316406 249.222656 234.46875 240.957031 C 245.753906 233.125 252.265625 223.121094 253.566406 211.808594 C 264.851562 217.898438 278.742188 221.378906 293.5 221.378906 C 310.863281 221.378906 326.921875 216.59375 339.074219 208.328125 C 351.664062 199.625 358.605469 187.878906 358.605469 175.261719 C 357.304688 156.121094 342.113281 139.585938 318.242188 132.191406 Z M 258.777344 97.820312 C 258.777344 76.9375 273.96875 60.40625 292.199219 60.40625 C 310.429688 60.40625 325.621094 77.371094 325.621094 97.820312 C 325.621094 118.269531 310.429688 135.238281 292.199219 135.238281 C 273.96875 135.238281 258.777344 118.703125 258.777344 97.820312 Z M 154.171875 130.449219 C 154.171875 109.566406 169.363281 93.035156 187.59375 93.035156 C 205.824219 93.035156 221.015625 110.003906 221.015625 130.449219 C 221.015625 150.898438 205.824219 167.867188 187.59375 167.867188 C 169.363281 167.867188 154.171875 151.332031 154.171875 130.449219 Z M 46.960938 97.820312 C 46.960938 76.9375 62.152344 60.40625 80.382812 60.40625 C 98.613281 60.40625 113.804688 77.371094 113.804688 97.820312 C 113.804688 118.269531 98.613281 135.238281 80.382812 135.238281 C 62.152344 135.238281 46.960938 118.703125 46.960938 97.820312 Z M 39.148438 202.238281 C 28.734375 194.839844 22.65625 185.269531 22.65625 174.828125 C 22.65625 158.292969 38.28125 143.503906 61.285156 137.847656 L 61.285156 137.410156 C 66.929688 140.890625 73.4375 142.632812 80.382812 142.632812 C 87.328125 142.632812 93.839844 140.890625 99.480469 137.410156 L 99.480469 137.847656 C 109.898438 140.457031 119.449219 144.808594 125.957031 150.898438 C 133.773438 157.859375 138.113281 166.125 138.113281 174.828125 C 138.113281 175.699219 138.113281 176.566406 138.113281 177.4375 C 130.300781 183.964844 125.089844 192.230469 123.355469 200.929688 C 111.636719 208.761719 95.140625 213.984375 80.382812 213.984375 C 64.757812 213.984375 50 209.632812 39.148438 202.238281 Z M 229.261719 234.867188 C 218.410156 242.699219 203.652344 246.613281 188.027344 246.613281 C 172.402344 246.613281 157.644531 242.261719 146.792969 234.867188 C 135.507812 227.46875 129.867188 217.898438 129.867188 207.457031 C 129.867188 190.925781 145.492188 176.132812 168.496094 170.476562 L 168.496094 170.042969 C 174.136719 173.523438 180.648438 175.261719 187.59375 175.261719 C 194.539062 175.261719 201.046875 173.523438 206.691406 170.042969 L 206.691406 170.476562 C 229.695312 176.132812 245.320312 190.925781 245.320312 207.457031 C 245.320312 217.898438 239.679688 227.46875 229.261719 234.867188 Z M 333.433594 202.238281 C 322.582031 210.066406 307.824219 213.984375 292.199219 213.984375 C 277.441406 213.984375 263.117188 210.066406 252.265625 203.105469 C 250.964844 192.230469 244.019531 182.222656 233.601562 174.828125 L 234.035156 174.828125 C 234.035156 158.292969 249.660156 143.503906 272.667969 137.847656 L 272.667969 137.410156 C 278.308594 140.890625 284.820312 142.632812 291.765625 142.632812 C 298.707031 142.632812 305.21875 140.890625 310.863281 137.410156 L 310.863281 137.847656 C 333.867188 143.503906 349.492188 158.292969 349.492188 174.828125 C 349.925781 184.832031 344.285156 194.839844 333.433594 202.238281 Z M 333.433594 202.238281 " fill-opacity="1" fill-rule="nonzero"/></g><path fill="#1e4dc4" d="M 273.886719 245.835938 C 291 225.753906 300.394531 200.566406 300.394531 173.902344 C 300.394531 144.175781 288.796875 116.230469 267.746094 95.210938 C 246.699219 74.191406 218.710938 62.613281 188.933594 62.613281 C 159.164062 62.613281 131.179688 74.191406 110.132812 95.210938 C 66.6875 138.605469 66.6875 209.207031 110.132812 252.597656 C 131.179688 273.617188 159.164062 285.195312 188.933594 285.195312 C 215.640625 285.195312 240.863281 275.8125 260.976562 258.726562 L 335.789062 333.4375 C 337.570312 335.21875 339.90625 336.109375 342.242188 336.109375 C 344.578125 336.109375 346.914062 335.21875 348.699219 333.4375 C 352.265625 329.878906 352.265625 324.109375 348.699219 320.546875 Z M 123.039062 239.703125 C 86.710938 203.425781 86.710938 144.386719 123.039062 108.101562 C 159.371094 71.832031 218.488281 71.8125 254.835938 108.101562 C 272.4375 125.679688 282.136719 149.046875 282.136719 173.902344 C 282.136719 198.761719 272.4375 222.128906 254.835938 239.703125 C 218.488281 275.996094 159.371094 275.980469 123.039062 239.703125 Z M 123.039062 239.703125 " fill-opacity="1" fill-rule="nonzero"/></svg>